<svg preserveAspectRatio="none" overflow="visible" style="display: block;" width="48" height="48" viewBox="0 0 48 48" fill="none" xmlns="http://www.w3.org/2000/svg">
<g id="general/notification-close">
<path id="Vector" fill-rule="evenodd" clip-rule="evenodd" d="M40.5134 45.3379L4.51341 5.33793L7.48659 2.66207L43.4866 42.6621L40.5134 45.3379ZM22 7.13239L22 4H26L26 7.13217C33.3387 8.10995 39 14.3938 39 22V29.5H35V22C35 15.9249 30.0751 11 24 11C21.9931 11 20.1174 11.5356 18.5015 12.4704L16.4985 9.00796C18.1584 8.0478 20.0193 7.39663 22 7.13239ZM9 22C9 19.8868 9.43818 17.8707 10.2305 16.0417L13.9009 17.6318C13.3219 18.9682 13 20.4439 13 22V33H26.5V37H6V33H9V22ZM31 40V44H17V40H31Z" fill="#4E5969"/>
</g>
</svg>
