<svg preserveAspectRatio="none" overflow="visible" style="display: block;" width="48" height="48" viewBox="0 0 48 48" fill="none" xmlns="http://www.w3.org/2000/svg">
<g id="general/pushpin">
<path id="Vector" fill-rule="evenodd" clip-rule="evenodd" d="M29.3325 5.75172C30.9742 4.27352 33.5034 4.40607 34.9816 6.04778L43.0111 14.9655C44.4893 16.6072 44.3568 19.1364 42.7151 20.6146L38.4478 24.4569C39.2078 27.8907 38.0806 31.5157 35.417 33.914L30.036 38.7591C29.036 39.6595 27.4953 39.5788 26.5948 38.5787L19.5266 30.7286L7.63624 41.4347L4.95971 38.4621L16.85 27.756L9.88521 20.0208C8.92762 18.9573 9.01348 17.3189 10.077 16.3613L15.3601 11.6044C18.0195 9.20978 21.7386 8.47189 25.0675 9.5919L29.3325 5.75172ZM32.009 8.7243L26.8705 13.351C26.2244 13.9328 25.2892 14.0626 24.509 13.6787C22.3708 12.6267 19.8075 12.9824 18.0366 14.5769L13.8004 18.3912L28.5213 34.7404L32.7405 30.9414C34.5217 29.3376 35.147 26.811 34.3194 24.5616C34.024 23.7585 34.2472 22.8566 34.8831 22.2841L40.0386 17.642L32.009 8.7243Z" fill="#4E5969"/>
</g>
</svg>
