<svg preserveAspectRatio="none" overflow="visible" style="display: block;" width="48" height="48" viewBox="0 0 48 48" fill="none" xmlns="http://www.w3.org/2000/svg">
<g id="general/qrcode">
<path id="Vector" fill-rule="evenodd" clip-rule="evenodd" d="M5 5H26V26H5V5ZM9 9V22H22V9H9ZM30 5H43V18H30V5ZM34 9V14H39V9H34ZM12 12H19V19H12V12ZM37 22H43V26H37V22ZM5 30H18V43H5V30ZM30 22H34V26H30V22ZM9 34V39H14V34H9ZM30 30H43V43H30V30ZM34 34V39H39V34H34ZM22 34V30H26V34H22ZM22 43V37H26V43H22Z" fill="#4E5969"/>
</g>
</svg>
